<svg xmlns="http://www.w3.org/2000/svg" viewBox="0 0 159.08 333.17">
    <defs>
        <style>.cls-1{fill:#a4a4a4;}</style>
    </defs>
    <title>file</title>
    <g id="레이어_2" data-name="레이어 2">
        <g id="레이어_1-2" data-name="레이어 1">
            <path class="cls-1" d="M79.54,333.17A79.63,79.63,0,0,1,0,253.63V128.82H25V253.63a54.54,54.54,0,0,0,109.08,0v-192a36.65,36.65,0,1,0-73.29,0v127.7a18.23,18.23,0,0,0,36.46,0V91.46h25v97.89a43.23,43.23,0,1,1-86.46,0V61.65a61.65,61.65,0,1,1,123.29,0v192A79.63,79.63,0,0,1,79.54,333.17Z"/>
        </g>
    </g>
</svg>
