<svg xmlns="http://www.w3.org/2000/svg" viewBox="0 0 160.44 160.12">
    <defs>
        <style>.cls-1{fill:#298fe3;}</style>
    </defs>
    <title>fax</title>
    <g id="레이어_2" data-name="레이어 2">
        <g id="레이어_1-2" data-name="레이어 1">
            <path class="cls-1" d="M148.91,37.77H125.85V11.53A11.53,11.53,0,0,0,114.32,0H46.12A11.53,11.53,0,0,0,34.59,11.53V37.77H11.53A11.53,11.53,0,0,0,0,49.3v64.57A11.53,11.53,0,0,0,11.53,125.4H31.92V98.07a7,7,0,0,1,0-.8H24.57a4.87,4.87,0,1,1,0-9.74H135.86a4.87,4.87,0,1,1,0,9.74h-7.38a7,7,0,0,1,0,.8V125.4h20.39a11.53,11.53,0,0,0,11.53-11.53V49.3A11.53,11.53,0,0,0,148.91,37.77ZM20,63.22a7,7,0,1,1,7-7A7,7,0,0,1,20,63.22Zm23.5-.9A7,7,0,1,1,40,49.15a6.9,6.9,0,0,1,3.44.91,7,7,0,0,1,0,12.26ZM117,37.77H43.48V11.53a2.64,2.64,0,0,1,2.64-2.64h68.2A2.64,2.64,0,0,1,117,11.53Z"/>
            <path class="cls-1" d="M125.81,97.27a6.88,6.88,0,0,0-.64-2.21,7,7,0,0,0-6.35-4H41.62a7,7,0,0,0-6.35,4,6.88,6.88,0,0,0-.64,2.21c0,.27,0,.53,0,.8v55a7,7,0,0,0,7,7h77.2a7,7,0,0,0,7-7v-55C125.85,97.8,125.83,97.54,125.81,97.27Zm-11.44,52.64a3.82,3.82,0,0,1-2.73,1.14H48.8a3.86,3.86,0,0,1-3.87-3.86,3.89,3.89,0,0,1,3.87-3.88h62.84a3.87,3.87,0,0,1,3.86,3.88A3.81,3.81,0,0,1,114.37,149.91Zm0-14.4a3.82,3.82,0,0,1-2.73,1.14H48.8a3.87,3.87,0,0,1,0-7.74h62.84a3.87,3.87,0,0,1,2.73,6.6Zm0-28.8a3.86,3.86,0,0,1-2.73,1.14H48.8A3.87,3.87,0,0,1,44.93,104a3.89,3.89,0,0,1,3.87-3.87h62.84a3.87,3.87,0,0,1,2.73,6.61Zm1.13,11.66a3.88,3.88,0,0,1-3.86,3.88H48.8a3.87,3.87,0,0,1-3.87-3.88,3.89,3.89,0,0,1,3.87-3.87h62.84A3.87,3.87,0,0,1,115.5,118.37Z"/>
        </g>
    </g>
</svg>
