<svg xmlns="http://www.w3.org/2000/svg" viewBox="0 0 151.76 151.76">
    <title>link</title>
    <g id="레이어_2" data-name="레이어 2">
        <g id="레이어_1-2" data-name="레이어 1">
            <path d="M116.18,83.67h20v46.9A21.21,21.21,0,0,1,115,151.76H21.19A21.21,21.21,0,0,1,0,130.57V36.78a21.22,21.22,0,0,1,21.19-21.2h46.9v20H21.19A1.19,1.19,0,0,0,20,36.78v93.79a1.19,1.19,0,0,0,1.19,1.19H115a1.19,1.19,0,0,0,1.19-1.19Z"/>
            <polygon points="151.76 0 151.76 73.04 131.76 73.04 131.76 34.15 60.67 105.24 46.52 91.1 117.62 20 78.73 20 78.73 0 151.76 0"/>
        </g>
    </g>
</svg>
