<svg xmlns="http://www.w3.org/2000/svg" viewBox="0 0 155.16 155.17">
    <defs>
        <style>.cls-1{fill:#298fe3;}</style>
    </defs>
    <title>list</title>
    <g id="레이어_2" data-name="레이어 2">
        <g id="레이어_1-2" data-name="레이어 1">
            <path class="cls-1" d="M0,0V155.17H155.16V0ZM48,117.78a9.28,9.28,0,1,1,9.28-9.28A9.29,9.29,0,0,1,48,117.78Zm0-30.92a9.28,9.28,0,1,1,9.28-9.28A9.28,9.28,0,0,1,48,86.86ZM48,56a9.28,9.28,0,1,1,9.28-9.28A9.29,9.29,0,0,1,48,56ZM116.4,112H68.27v-7H116.4Zm0-30.92H68.27v-7H116.4Zm0-30.91H68.27v-7H116.4Z"/>
        </g>
    </g>
</svg>
