<svg xmlns="http://www.w3.org/2000/svg" viewBox="0 0 156.96 111.19">
    <defs>
        <style>.cls-1{fill:#298fe3;}</style>
    </defs>
    <title>mail</title>
    <g id="레이어_2" data-name="레이어 2">
        <g id="레이어_1-2" data-name="레이어 1">
            <path class="cls-1" d="M55.37,55.59,2.5,100.12A20.88,20.88,0,0,1,0,90.19V21a21,21,0,0,1,2.49-9.94Z"/>
            <path class="cls-1" d="M157,21V90.19a21.14,21.14,0,0,1-2.49,9.94l-52.9-44.54,52.9-44.53A21.2,21.2,0,0,1,157,21Z"/>
            <path class="cls-1" d="M148.4,107.1l-.71.51A20.94,20.94,0,0,1,136,111.19H21a20.88,20.88,0,0,1-11.72-3.58l-.72-.51,54-45.47,4.09,3.44a18.32,18.32,0,0,0,23.68,0l4.09-3.44Z"/>
            <path class="cls-1" d="M148.41,4.08,84.37,58a9.1,9.1,0,0,1-11.79,0L8.55,4.08c.24-.18.48-.35.72-.5A20.83,20.83,0,0,1,21,0H136a20.87,20.87,0,0,1,11.73,3.58Z"/>
        </g>
    </g>
</svg>
