<svg xmlns="http://www.w3.org/2000/svg" viewBox="0 0 132.88 116.94">
    <defs>
        <style>.cls-1{fill:#298fe3;}</style>
    </defs>
    <title>phone</title>
    <g id="레이어_2" data-name="레이어 2">
        <g id="레이어_1-2" data-name="레이어 1">
            <path class="cls-1" d="M66.44,61.91A16.35,16.35,0,1,0,82.8,78.26,16.36,16.36,0,0,0,66.44,61.91Z"/>
            <path class="cls-1" d="M103.18,48.62A13.2,13.2,0,0,0,91.72,42h-.35V33.88a8.09,8.09,0,0,0-16.17,0V42H57.68V33.88a8.08,8.08,0,0,0-16.16,0V42h-.35A13.22,13.22,0,0,0,29.7,48.62L12,79.63a30.16,30.16,0,0,0-4,15V108.1a8.84,8.84,0,0,0,8.84,8.84H116a8.84,8.84,0,0,0,8.85-8.84V94.59a30.07,30.07,0,0,0-4-15Zm-36.74,54A24.35,24.35,0,1,1,90.8,78.26,24.35,24.35,0,0,1,66.44,102.61Z"/>
            <path class="cls-1" d="M93.89,0H39C17.46,0,0,14.65,0,32.73v5.52C0,42,3.62,45,8.08,45h16c4.46,0,8.08-3,8.08-6.79V35.62h0c0-12.26,11.84-22.2,26.44-22.2h15.7c14.61,0,26.44,9.94,26.44,22.2h0v2.63c0,3.75,3.62,6.79,8.09,6.79h16c4.47,0,8.08-3,8.08-6.79V32.73C132.88,14.65,115.43,0,93.89,0Z"/>
        </g>
    </g>
</svg>
