<svg xmlns="http://www.w3.org/2000/svg" 
  xmlns:xlink="http://www.w3.org/1999/xlink" viewBox="0 0 1799.86 500">
  <defs>
    <style>.cls-1{fill:url(#무제_그라디언트_17);}.cls-2{fill:url(#무제_그라디언트_17-2);}.cls-3{fill:url(#무제_그라디언트_17-3);}.cls-4{fill:url(#무제_그라디언트_17-4);}.cls-5{fill:url(#무제_그라디언트_17-5);}.cls-6{fill:url(#무제_그라디언트_17-6);}.cls-7{fill:url(#무제_그라디언트_17-7);}.cls-8{fill:url(#무제_그라디언트_17-8);}.cls-9{fill:url(#무제_그라디언트_17-9);}.cls-10{fill:url(#무제_그라디언트_17-10);}.cls-11{fill:url(#무제_그라디언트_17-11);}.cls-12{fill:url(#무제_그라디언트_17-13);}.cls-13{fill:url(#무제_그라디언트_17-14);}.cls-14{fill:url(#무제_그라디언트_17-16);}.cls-15{fill:url(#무제_그라디언트_17-17);}.cls-16{fill:url(#무제_그라디언트_17-18);}.cls-17{fill:url(#무제_그라디언트_17-19);}.cls-18{fill:url(#무제_그라디언트_17-20);}.cls-19{fill:url(#무제_그라디언트_17-21);}.cls-20{fill:url(#무제_그라디언트_17-22);}.cls-21{fill:url(#무제_그라디언트_17-24);}.cls-22{fill:#fff;}.cls-23{fill:url(#무제_그라디언트_17-52);}.cls-24{fill:url(#무제_그라디언트_17-53);}.cls-25{fill:url(#무제_그라디언트_17-54);}.cls-26{fill:url(#무제_그라디언트_17-55);}.cls-27{fill:url(#무제_그라디언트_17-56);}</style>
    <linearGradient id="무제_그라디언트_17" x1="41.64" y1="276.43" x2="238.38" y2="202.47" gradientUnits="userSpaceOnUse">
      <stop offset="0" stop-color="#00b4db"/>
      <stop offset="1" stop-color="#1851bd"/>
    </linearGradient>
    <linearGradient id="무제_그라디언트_17-2" x1="6.44" y1="356.26" x2="490.13" y2="356.26" xlink:href="#무제_그라디언트_17"/>
    <linearGradient id="무제_그라디언트_17-3" x1="143.7" y1="249.39" x2="143.72" y2="249.39" xlink:href="#무제_그라디언트_17"/>
    <linearGradient id="무제_그라디언트_17-4" x1="143.71" y1="252.45" x2="143.76" y2="252.45" xlink:href="#무제_그라디언트_17"/>
    <linearGradient id="무제_그라디언트_17-5" x1="157.19" y1="302.55" x2="157.98" y2="302.55" xlink:href="#무제_그라디언트_17"/>
    <linearGradient id="무제_그라디언트_17-6" x1="194.19" y1="341.23" x2="196.65" y2="341.23" xlink:href="#무제_그라디언트_17"/>
    <linearGradient id="무제_그라디언트_17-7" x1="198.07" y1="343.04" x2="199.04" y2="343.04" xlink:href="#무제_그라디언트_17"/>
    <linearGradient id="무제_그라디언트_17-8" x1="205.81" y1="346.87" x2="206.56" y2="346.87" xlink:href="#무제_그라디언트_17"/>
    <linearGradient id="무제_그라디언트_17-9" x1="216.9" y1="351.23" x2="218.12" y2="351.23" xlink:href="#무제_그라디언트_17"/>
    <linearGradient id="무제_그라디언트_17-10" x1="248.26" y1="356.28" x2="248.86" y2="356.28" xlink:href="#무제_그라디언트_17"/>
    <linearGradient id="무제_그라디언트_17-11" x1="248.71" y1="356.29" x2="250.49" y2="356.29" xlink:href="#무제_그라디언트_17"/>
    <linearGradient id="무제_그라디언트_17-13" x1="149.38" y1="285.67" x2="150.3" y2="285.67" xlink:href="#무제_그라디언트_17"/>
    <linearGradient id="무제_그라디언트_17-14" x1="154.37" y1="297.49" x2="155.38" y2="297.49" xlink:href="#무제_그라디언트_17"/>
    <linearGradient id="무제_그라디언트_17-16" x1="157.48" y1="303.22" x2="158.45" y2="303.22" xlink:href="#무제_그라디언트_17"/>
    <linearGradient id="무제_그라디언트_17-17" x1="161.22" y1="309.54" x2="162.65" y2="309.54" xlink:href="#무제_그라디언트_17"/>
    <linearGradient id="무제_그라디언트_17-18" x1="164.19" y1="313.72" x2="165.62" y2="313.72" xlink:href="#무제_그라디언트_17"/>
    <linearGradient id="무제_그라디언트_17-19" x1="167.33" y1="317.67" x2="168.72" y2="317.67" xlink:href="#무제_그라디언트_17"/>
    <linearGradient id="무제_그라디언트_17-20" x1="171.51" y1="322.4" x2="172.83" y2="322.4" xlink:href="#무제_그라디언트_17"/>
    <linearGradient id="무제_그라디언트_17-21" x1="177.19" y1="327.92" x2="178.21" y2="327.92" xlink:href="#무제_그라디언트_17"/>
    <linearGradient id="무제_그라디언트_17-22" x1="182.41" y1="332.7" x2="184.01" y2="332.7" xlink:href="#무제_그라디언트_17"/>
    <linearGradient id="무제_그라디언트_17-24" x1="248.5" y1="356.28" x2="248.77" y2="356.28" xlink:href="#무제_그라디언트_17"/>
    <linearGradient id="무제_그라디언트_17-52" x1="209.39" y1="20.23" x2="299.15" y2="239.23" xlink:href="#무제_그라디언트_17"/>
    <linearGradient id="무제_그라디언트_17-53" x1="6.44" y1="356.28" x2="490.13" y2="356.28" xlink:href="#무제_그라디언트_17"/>
    <linearGradient id="무제_그라디언트_17-54" x1="6.44" y1="356.29" x2="490.13" y2="356.29" xlink:href="#무제_그라디언트_17"/>
    <linearGradient id="무제_그라디언트_17-55" x1="426.57" y1="219.02" x2="266.44" y2="300.16" xlink:href="#무제_그라디언트_17"/>
    <linearGradient id="무제_그라디언트_17-56" x1="253.81" y1="437.01" x2="202.11" y2="246.72" xlink:href="#무제_그라디언트_17"/>
  </defs>
  <title>connection_full</title>
  <g id="레이어_2" data-name="레이어 2">
    <g id="레이어_1-2" data-name="레이어 1">
      <path class="cls-1" d="M356.28,251.57A178.14,178.14,0,0,1,0,251.34c0-.44,0-.89,0-1.34s0-.89,0-1.34C.72,111.65,111.65.72,248.66,0a178.16,178.16,0,0,0-83.5,334.83q5.24,2.84,10.67,5.33l2.4,1.08,2.47,1.06,2.42,1,1.28.5c.81.33,1.62.64,2.44.95,2.2.84,4.41,1.63,6.65,2.37l2.18.72,1.35.42,2.5.76c.89.26,1.78.52,2.67.76l1.3.36,1.31.35,1.78.45.84.21q7.83,1.92,15.93,3.14l1.13.16.35.06,2.6.34,1.37.17,2.47.28,3,.29,2.77.22,1.38.09,1,.06c2,.12,4,.2,6,.25.93,0,1.87,0,2.81,0h3.32A106.29,106.29,0,0,0,356.28,251.57Z"/>
      <path class="cls-2" d="M248.25,356.28c-.94,0-1.88,0-2.81,0Z"/>
      <path class="cls-3" d="M143.71,249.18v0Z"/>
      <path class="cls-4" d="M143.73,252c0,.28,0,.56,0,.84a.53.53,0,0,1,0-.13C143.73,252.5,143.73,252.27,143.73,252Z"/>
      <path class="cls-5" d="M157.41,302.25l.35.6a4,4,0,0,1-.2-.35Z"/>
      <path class="cls-6" d="M194.88,340.9l1.09.66-.62-.37Z"/>
      <path class="cls-7" d="M198.34,342.92l.43.23-.12-.06Z"/>
      <path class="cls-8" d="M206,346.8l.33.15-.09,0Z"/>
      <path class="cls-9" d="M217.24,351.15l.54.17-.43-.13Z"/>
      <path class="cls-10" d="M248.57,356.28h0Z"/>
      <path class="cls-11" d="M250,356.29h0Z"/>
      <path class="cls-4" d="M143.73,252c0,.28,0,.56,0,.84a.53.53,0,0,1,0-.13C143.73,252.5,143.73,252.27,143.73,252Z"/>
      <path class="cls-12" d="M149.64,285.11c.13.38.27.75.4,1.13,0-.1-.07-.19-.1-.29Z"/>
      <path class="cls-13" d="M154.65,297l.45.89-.17-.34C154.84,297.41,154.75,297.22,154.65,297Z"/>
      <path class="cls-5" d="M157.41,302.25l.35.6a4,4,0,0,1-.2-.35Z"/>
      <path class="cls-14" d="M157.76,302.85l.42.74-.22-.39A4,4,0,0,1,157.76,302.85Z"/>
      <path class="cls-15" d="M161.62,309.07l.63.93-.19-.27Z"/>
      <path class="cls-16" d="M165.19,314.07l0,.06-.24-.31-.39-.52C164.79,313.56,165,313.82,165.19,314.07Z"/>
      <path class="cls-17" d="M167.72,317.3l.62.74-.26-.3Z"/>
      <path class="cls-18" d="M171.88,322.08l.59.63-.29-.3Z"/>
      <path class="cls-19" d="M177.48,327.71l.45.41-.34-.3Z"/>
      <path class="cls-20" d="M182.87,332.41c.23.2.47.39.7.57l-.34-.27Z"/>
      <path class="cls-8" d="M206,346.8l.33.15-.09,0Z"/>
      <path class="cls-21" d="M248.57,356.28h0Z"/>
      <path class="cls-11" d="M250,356.29h0Z"/>
      <path class="cls-3" d="M143.71,249.18v0Z"/>
      <path class="cls-4" d="M143.73,252c0,.28,0,.56,0,.84a.53.53,0,0,1,0-.13C143.73,252.5,143.73,252.27,143.73,252Z"/>
      <path class="cls-12" d="M149.64,285.11c.13.38.27.75.4,1.13,0-.1-.07-.19-.1-.29Z"/>
      <path class="cls-13" d="M154.65,297l.45.89-.17-.34C154.84,297.41,154.75,297.22,154.65,297Z"/>
      <path class="cls-5" d="M157.41,302.25l.35.6a4,4,0,0,1-.2-.35Z"/>
      <path class="cls-14" d="M157.76,302.85l.42.74-.22-.39A4,4,0,0,1,157.76,302.85Z"/>
      <path class="cls-15" d="M161.62,309.07l.63.93-.19-.27Z"/>
      <path class="cls-16" d="M165.19,314.07l0,.06-.24-.31-.39-.52C164.79,313.56,165,313.82,165.19,314.07Z"/>
      <path class="cls-17" d="M167.72,317.3l.62.74-.26-.3Z"/>
      <path class="cls-18" d="M171.88,322.08l.59.63-.29-.3Z"/>
      <path class="cls-19" d="M177.48,327.71l.45.41-.34-.3Z"/>
      <path class="cls-20" d="M182.87,332.41c.23.2.47.39.7.57l-.34-.27Z"/>
      <path class="cls-8" d="M206,346.8l.33.15-.09,0Z"/>
      <path class="cls-21" d="M248.57,356.28h0Z"/>
      <path class="cls-11" d="M250,356.29h0Z"/>
      <path class="cls-2" d="M248.25,356.28c-.94,0-1.88,0-2.81,0Z"/>
      <path class="cls-3" d="M143.71,249.18v0Z"/>
      <path class="cls-4" d="M143.73,252c0,.28,0,.56,0,.84a.53.53,0,0,1,0-.13C143.73,252.5,143.73,252.27,143.73,252Z"/>
      <path class="cls-5" d="M157.41,302.25l.35.6a4,4,0,0,1-.2-.35Z"/>
      <path class="cls-6" d="M194.88,340.9l1.09.66-.62-.37Z"/>
      <path class="cls-7" d="M198.34,342.92l.43.23-.12-.06Z"/>
      <path class="cls-8" d="M206,346.8l.33.15-.09,0Z"/>
      <path class="cls-9" d="M217.24,351.15l.54.17-.43-.13Z"/>
      <path class="cls-10" d="M248.57,356.28h0Z"/>
      <path class="cls-11" d="M250,356.29h0Z"/>
      <path class="cls-2" d="M248.25,356.28c-.94,0-1.88,0-2.81,0Z"/>
      <path class="cls-22" d="M143.71,249.18v0Z"/>
      <path class="cls-22" d="M143.73,252c0,.28,0,.56,0,.84a.53.53,0,0,1,0-.13C143.73,252.5,143.73,252.27,143.73,252Z"/>
      <path class="cls-22" d="M157.41,302.25l.35.6a4,4,0,0,1-.2-.35Z"/>
      <path class="cls-22" d="M194.88,340.9l1.09.66-.62-.37Z"/>
      <path class="cls-22" d="M198.34,342.92l.43.23-.12-.06Z"/>
      <path class="cls-22" d="M206,346.8l.33.15-.09,0Z"/>
      <path class="cls-22" d="M217.24,351.15l.54.17-.43-.13Z"/>
      <path class="cls-22" d="M248.57,356.28h0Z"/>
      <path class="cls-22" d="M250,356.29h0Z"/>
      <path class="cls-23" d="M500,248.66a178.16,178.16,0,0,0-334.83-83.49q-2.58,4.76-4.87,9.67c-.34.74-.68,1.47-1,2.2q-.87,2-1.71,3.93c-.17.42-.35.83-.52,1.25l-.57,1.42c-.15.37-.3.73-.44,1.1l-.48,1.22-.5,1.32c-.14.38-.28.76-.43,1.14-.33.93-.67,1.85-1,2.79l-.42,1.19c-.14.43-.29.86-.43,1.3l-.39,1.18c-.24.72-.47,1.44-.69,2.17-.11.34-.22.69-.32,1-.55,1.79-1.06,3.6-1.55,5.41-.12.44-.24.87-.35,1.3-.23.87-.45,1.75-.66,2.62s-.43,1.76-.63,2.64-.4,1.77-.58,2.65c-.1.45-.19.89-.28,1.34-.14.67-.28,1.33-.4,2s-.26,1.34-.38,2c-.16.89-.32,1.79-.47,2.69l-.21,1.36c-.17,1.07-.33,2.15-.48,3.22l-.15,1.1c0,.34-.09.67-.13,1s-.09.77-.14,1.15q-.19,1.64-.36,3.27c-.06.54-.11,1.09-.16,1.63s-.1,1.1-.14,1.65-.09,1.06-.13,1.59v.07c0,.54-.08,1.09-.11,1.64-.06.82-.11,1.65-.15,2.48,0,.42,0,.83-.05,1.25s0,.83,0,1.25,0,.83,0,1.25,0,.83,0,1.25,0,.84,0,1.25c0,.67,0,1.34,0,2V250c0,.52,0,1.05,0,1.57V252c0,.28,0,.56,0,.84,0,0,0,0,0,0,0,.4,0,.8,0,1.2s0,.59,0,.88c0,.62.06,1.23.1,1.84l.06.83c.07,1,.16,2.08.26,3.11,0,0,0,.08,0,.12s0,.33.05.49l.09.83c0,.44.1.87.16,1.31v0c.05.4.1.79.16,1.19,0,0,0,.06,0,.09l.06.42,0,.22,0,.16c0,.17,0,.33.07.5a.43.43,0,0,0,0,.11c.06.39.12.79.19,1.18v0l.21,1.21.09.54c.06.31.12.61.17.92s.15.75.23,1.13v0c0,.05,0,.1,0,.15,0,.29.11.57.17.86l.18.8c.07.31.13.61.2.91s.17.72.26,1.08.15.63.23.95l.08.29v0l0,.07.28,1.08,0,.13c.07.25.13.5.2.74s.09.3.13.45l.05.18.33,1.16c.08.27.17.54.25.82s.09.31.14.47l.21.66c0,.14.08.27.13.4a1.54,1.54,0,0,0,0,.17l.16.49.18.56.06.17.42,1.22.3.84c0,.1.07.19.1.29l.18.48c.05.13.09.25.14.37l0,.1.06.14,0,.07.11.29c0,.12.1.25.14.37a.36.36,0,0,0,0,.09c.06.16.13.33.19.5a.49.49,0,0,1,0,.11c.13.31.25.63.38.94l.06.15v0l.32.78.09.21.06.14c.11.27.23.55.35.82,0,.11.09.22.14.33l.09.2c.09.23.19.45.29.68l.21.46c.09.21.19.41.28.62s.09.21.14.3l.07.16.25.52c.09.2.18.4.28.6l0,.07c.14.29.28.59.43.88l.18.38c.1.18.19.37.28.55l.17.34c0,.09.09.17.13.25l.2.39.27.52,0,.06c.15.3.31.59.47.89l.26.49.26.48.08.14.09.16,0,.07.48.87.35.6a4,4,0,0,0,.2.35l.22.39h0l.44.76a3.79,3.79,0,0,1,.2.34l.49.79.85,1.37.06.09.17.28.27.42.5.75.32.49c0,.07.09.13.13.19l.44.66.19.27a.1.1,0,0,0,0,.05c.22.34.46.68.7,1l.72,1,0,.05c.21.31.44.61.66.91l.18.25.39.52.2.25,0,.06.06.09.67.87.07.09.66.84a1,1,0,0,0,.13.16l.48.6.16.2.11.14.15.18.36.44.26.3a2.11,2.11,0,0,0,.19.23l.37.44c.14.17.28.34.43.5s.38.45.57.66l.57.65.15.17.33.37.13.15.59.64,0,0,0,.05.12.13.3.33.29.3.27.29.35.37.15.15c.16.17.31.34.48.5,0,0,0,0,.05.05l.19.2.46.47.67.67.64.63.22.21.35.35.7.66,0,0,.44.42.11.11.34.3,0,0,.08.07.05,0,0,.05.39.35.2.18.45.4.48.43.09.08.09.08a.86.86,0,0,1,.14.13l.43.37.19.16,0,0,.5.43.51.43.27.23.47.39.48.39.36.3.34.27.09.07.26.22.46.35a6.12,6.12,0,0,0,.5.39l.41.32.37.29.23.17.75.56.27.2.52.38h0l.3.22.73.52.32.23.61.43.26.18,1.26.86.69.46.27.17,0,0,.79.51.28.18.69.43.11.07.46.28.56.35.07,0,.47.29.62.37,0,0,.37.21.54.32,1.43.81.31.17.12.06.42.24.38.2.82.44.34.18.75.39.35.18.84.42.46.23.62.3.45.22.69.32.38.18.6.28.15.07.33.15.33.14.1.05.83.36,1.17.51h0l.41.17.62.26.48.19.94.38.33.12.63.25.17.06,1.14.43.22.07.51.19.15.05.29.11.18.06.61.21.44.15.18.06.19.07.09,0,.78.26.08,0h0l.11,0,.43.13.75.24.67.2.65.2.11,0,1.16.33.39.11.66.18.2.06.07,0,.5.13.5.13h0l.84.21h0l.41.1.21.05,1.1.26.86.19c.56.13,1.12.25,1.69.36.28.07.57.12.85.17l.43.09.55.1.77.14,1.27.22.1,0,1.37.22,1.21.17,1.24.17h.12c.84.11,1.69.21,2.53.3l.49,0,.92.09,1.34.11.73,0,2,.13.47,0h.05l.7,0h.14l1.2,0,1,0h.17c-.94,0-1.88,0-2.81,0-2-.05-4-.13-6-.25l-1-.06-1.38-.09-2.77-.22-3-.29L228.8,355l-1.37-.17-2.6-.34-.35-.06-1.13-.16q-8.08-1.21-15.93-3.14l-.84-.21-1.78-.45-1.31-.35-1.3-.36c-.89-.24-1.78-.5-2.67-.76l-2.5-.76-1.35-.42-2.18-.72c-2.24-.74-4.45-1.53-6.65-2.37-.82-.31-1.63-.62-2.44-.95l-1.28-.5-2.42-1-2.47-1.06-2.4-1.08q-5.43-2.49-10.67-5.33A178.16,178.16,0,0,1,248.66,0h2.68C388.35.72,499.28,111.65,500,248.66Z"/>
      <path class="cls-24" d="M248.69,356.29h0Z"/>
      <path class="cls-25" d="M250,356.29h0Z"/>
      <path class="cls-26" d="M500,250c0,.45,0,.9,0,1.34-.71,137-111.64,247.94-248.65,248.65a178.14,178.14,0,0,0,.23-356.27h-3.14A106.29,106.29,0,0,0,143.72,248.43c0-.42,0-.84,0-1.26,0-.83,0-1.67.06-2.5,0-.42,0-.84,0-1.25s0-.84,0-1.25,0-.83.05-1.25l.15-2.48c0-.55.07-1.09.11-1.64v-.07c0-.53.09-1.06.13-1.59s.09-1.1.14-1.65.11-1.09.16-1.63q.16-1.63.36-3.27c.05-.38.09-.76.14-1.15s.09-.66.13-1l.15-1.1c.15-1.07.31-2.15.48-3.22l.21-1.36c.15-.9.31-1.8.47-2.69.13-.68.25-1.35.38-2s.26-1.33.4-2c.09-.45.18-.89.28-1.34.18-.88.38-1.77.58-2.65s.41-1.76.63-2.64.43-1.75.66-2.62c.11-.43.23-.86.35-1.3.49-1.81,1-3.62,1.55-5.41.1-.35.21-.7.32-1,.22-.73.45-1.45.69-2.17l.39-1.18c.14-.44.29-.87.43-1.3l.42-1.19c.32-.94.66-1.86,1-2.79.15-.38.29-.76.43-1.14l.5-1.32.48-1.22c.14-.37.29-.73.44-1.1l.57-1.42c.17-.42.35-.83.52-1.25q.84-2,1.71-3.93c.33-.73.67-1.46,1-2.2q2.29-4.92,4.87-9.67A178.15,178.15,0,0,1,500,248.66C500,249.11,500,249.55,500,250Z"/>
      <path class="cls-27" d="M428.15,321.85A178,178,0,0,1,251.34,500h-2.68C111.65,499.28.72,388.35,0,251.34a178.14,178.14,0,0,0,356.27.23c0-.12,0-.23,0-.35v-2.44c0-.12,0-.23,0-.35A106.29,106.29,0,0,0,251.57,143.72,178,178,0,0,1,428.15,321.85Z"/>
      <path class="cls-2" d="M248.25,356.28c-.94,0-1.88,0-2.81,0Z"/>
      <path d="M741.72,178.67a68,68,0,0,0-20.18-12.88,59.83,59.83,0,0,0-22.14-4.09q-24.21,0-38.6,14.49T646.42,215.1q0,23.9,13.35,37.92t36.42,14a64.65,64.65,0,0,0,45.32-17.59l-.2,33.22a85.71,85.71,0,0,1-21.68,9.1,92.89,92.89,0,0,1-23.85,3q-36.22,0-59.45-22.5T613.1,215.1q0-34.56,23.28-57t60-22.45a108.29,108.29,0,0,1,23.8,2.58,106.49,106.49,0,0,1,22.66,8Z"/>
      <path d="M876,240.35q0,23.39-16,38.9t-40.52,15.52q-24.72,0-40.77-15.52t-16-38.9q0-23.29,16.14-38.91t40.66-15.63q24.63,0,40.57,15.42T876,240.35Zm-30-.21q0-12.42-7.25-19.82t-19.45-7.4q-12.21,0-19.35,7.35t-7.14,19.87q0,12.42,7.14,19.87t19.35,7.45q12.1,0,19.4-7.45T846,240.14Z"/>
      <path d="M898.28,290.74V189.23h28.87v15.93q8-9.93,17.13-14.64a43.77,43.77,0,0,1,20.33-4.71q11.79,0,19.82,4A29.45,29.45,0,0,1,997.1,202a32.73,32.73,0,0,1,3.26,9.57q1,5.33,1,16.71v62.5H971.85V240.55q0-18.72-4.34-24.73t-14.9-6a24.93,24.93,0,0,0-11.23,2.54,23.16,23.16,0,0,0-8.54,7.19,23.43,23.43,0,0,0-3.88,8.27q-1.19,4.67-1.19,14.18v48.74Z"/>
      <path d="M1029.28,290.74V189.23h28.87v15.93q8-9.93,17.13-14.64a43.77,43.77,0,0,1,20.33-4.71q11.81,0,19.82,4A29.45,29.45,0,0,1,1128.1,202a32.44,32.44,0,0,1,3.26,9.57q1,5.33,1,16.71v62.5h-29.5V240.55q0-18.72-4.34-24.73t-14.9-6a25,25,0,0,0-11.23,2.54,23.24,23.24,0,0,0-8.54,7.19,23.6,23.6,0,0,0-3.88,8.27q-1.18,4.67-1.19,14.18v48.74Z"/>
      <path d="M1259.42,247.28h-76.27q1.77,11,8,16.4t16.87,5.43a29.31,29.31,0,0,0,13.92-3.1,25.78,25.78,0,0,0,9.77-9.42l23.8,11.9q-8.28,13.35-20.07,19.82t-28,6.46q-24.63,0-39-14.69T1154,240.55q0-23.9,15.06-39.32t38.54-15.42q24.23,0,38.29,14.44t14.07,39.37c0,.9,0,1.88-.1,2.95S1259.62,245.21,1259.42,247.28Zm-29.19-17.8q-1.23-9.61-7-14.54T1207.57,210q-9.93,0-15.88,4.91t-7.61,14.54Z"/>
      <path d="M1356.58,287.74a47.3,47.3,0,0,1-12.62,5.33,58,58,0,0,1-14.49,1.7q-24,0-39.11-15.26t-15.11-39.68q0-23.91,15.21-39t39.42-15.06a61.53,61.53,0,0,1,14.49,1.56,46.23,46.23,0,0,1,12.21,4.86l-.21,29.59a32.91,32.91,0,0,0-23.69-9.93q-12.42,0-19.87,7.61t-7.45,20.12q0,12.84,7.6,20.44t20.54,7.6a29.7,29.7,0,0,0,12.68-2.58,30.39,30.39,0,0,0,10.19-8.07Z"/>
      <path d="M1382.45,290.74V212.3h-14.18V189.23h14.18V155.49h29.49v33.74h14.18V212.3h-14.18v78.44Z"/>
      <path d="M1442.88,147.53a17.31,17.31,0,0,1,17.18-17.18,16.89,16.89,0,0,1,12.26,5,17.06,17.06,0,0,1,0,24.37,16.82,16.82,0,0,1-12.26,5.07,16.36,16.36,0,0,1-12.11-5.18A16.72,16.72,0,0,1,1442.88,147.53Zm2.59,143.21V189.23h29.38V290.74Z"/>
      <path d="M1611.55,240.35q0,23.39-16,38.9t-40.51,15.52q-24.73,0-40.77-15.52t-16-38.9q0-23.29,16.14-38.91t40.67-15.63q24.63,0,40.56,15.42T1611.55,240.35Zm-30-.21q0-12.42-7.24-19.82t-19.46-7.4q-12.21,0-19.35,7.35t-7.14,19.87q0,12.42,7.14,19.87t19.35,7.45q12.11,0,19.4-7.45T1581.54,240.14Z"/>
      <path d="M1633.79,290.74V189.23h28.87v15.93q8-9.93,17.13-14.64a43.8,43.8,0,0,1,20.33-4.71q11.81,0,19.82,4A29.53,29.53,0,0,1,1732.62,202a32.72,32.72,0,0,1,3.25,9.57q1,5.33,1,16.71v62.5h-29.49V240.55q0-18.72-4.35-24.73t-14.9-6a25,25,0,0,0-11.23,2.54,23.69,23.69,0,0,0-12.41,15.46q-1.2,4.67-1.19,14.18v48.74Z"/>
      <path d="M619.62,347.55a14.89,14.89,0,0,0,3.72-1.74,17.21,17.21,0,0,0,3.28-2.71,16.25,16.25,0,0,0,2.38-3.5,11.5,11.5,0,0,0,1.19-4h-7.93v-2.86H642v2.86h-8a8.75,8.75,0,0,0,1.11,3.79,12.06,12.06,0,0,0,2.42,3,15.19,15.19,0,0,0,3.17,2.27,17.36,17.36,0,0,0,3.52,1.43L642,348.61a21.78,21.78,0,0,1-5.52-3.31,17.64,17.64,0,0,1-4.3-4.8,21.79,21.79,0,0,1-4.25,5.69,18.48,18.48,0,0,1-5.7,3.87Zm7-21h11.19v2.86H626.58Zm13.34,39.77a20.08,20.08,0,0,1-9.64-2c-2.41-1.33-3.61-3.19-3.61-5.6a5.66,5.66,0,0,1,.94-3.19,7.41,7.41,0,0,1,2.71-2.4,15.37,15.37,0,0,1,4.19-1.5,25.57,25.57,0,0,1,5.41-.53c4.06,0,7.29.68,9.72,2s3.63,3.21,3.63,5.59a6.13,6.13,0,0,1-3.63,5.62A20.62,20.62,0,0,1,639.92,366.36Zm-9.55-7.58a3.36,3.36,0,0,0,.72,2.12,5.22,5.22,0,0,0,2,1.49,11.8,11.8,0,0,0,3,.93,22.09,22.09,0,0,0,3.76.31,17.48,17.48,0,0,0,6.92-1.21q2.77-1.21,2.77-3.59c0-1.59-.91-2.79-2.75-3.59a17.24,17.24,0,0,0-6.94-1.21,22.13,22.13,0,0,0-3.76.3,13.5,13.5,0,0,0-3.06.89,6,6,0,0,0-2,1.49A3.18,3.18,0,0,0,630.37,358.78Zm18.85-7.88v-10h-7.14v-2.86h7.14V326.63h3.43V350.9Z"/>
      <path d="M696.26,360.76H660.4v-3h16.12V348h3.57v9.82h16.17Zm-16.08-29.29a10.66,10.66,0,0,0,1.32,5.14,18.59,18.59,0,0,0,3.39,4.47,23.58,23.58,0,0,0,4.65,3.45,22.61,22.61,0,0,0,5,2.18l-2.42,2.65a31.17,31.17,0,0,1-4.21-2,28.41,28.41,0,0,1-3.94-2.67,25.4,25.4,0,0,1-3.32-3.32,14.58,14.58,0,0,1-2.32-3.86,19.5,19.5,0,0,1-5.61,7.14,30.22,30.22,0,0,1-8.22,4.71L662,346.71a25.3,25.3,0,0,0,5.24-2.26,23.65,23.65,0,0,0,4.62-3.42,17.17,17.17,0,0,0,3.35-4.4,10.92,10.92,0,0,0,1.28-5.16v-3.21h3.74Z"/>
      <path d="M705.28,348.34a1,1,0,0,1-.72-.19,1.06,1.06,0,0,1-.2-.73V327.78h3.44v17.44h3c1.44,0,3-.05,4.56-.14s3.13-.2,4.6-.35,2.8-.3,4-.46a19.83,19.83,0,0,0,2.71-.51v2.95c-.71.18-1.65.37-2.82.58s-2.5.38-4,.52-3,.28-4.69.38-3.32.15-5,.15Zm4.06,16.56a1,1,0,0,1-.73-.19,1.06,1.06,0,0,1-.2-.73V353h3.53v8.94h22.68v3Zm10.35-27.48h10.57v-4.23H719.69v-2.82h10.52v-3.7h3.44V355.3h-3.39V340.24H719.69Z"/>
      <path d="M780.51,335.53h-8.15a9.09,9.09,0,0,0,1.15,3.74,13.22,13.22,0,0,0,2.38,3.08,15.52,15.52,0,0,0,3.12,2.34,17.49,17.49,0,0,0,3.53,1.5l-2.12,2.42a18.3,18.3,0,0,1-5.57-3.28,17.13,17.13,0,0,1-4.16-5,17.66,17.66,0,0,1-4,5.92,20.44,20.44,0,0,1-5.7,4l-2.65-2.51a13.76,13.76,0,0,0,3.57-1.76,17.72,17.72,0,0,0,3.22-2.78,16.21,16.21,0,0,0,2.42-3.56,12,12,0,0,0,1.19-4.14h-7.89v-2.82h19.69Zm-3.13,30.83a20.6,20.6,0,0,1-9.64-1.92,6,6,0,0,1-3.61-5.53,5.57,5.57,0,0,1,.94-3.17,7.34,7.34,0,0,1,2.71-2.33,15,15,0,0,1,4.19-1.48,27.07,27.07,0,0,1,5.41-.5c4.06,0,7.29.65,9.72,2s3.63,3.15,3.63,5.52a6,6,0,0,1-3.63,5.55A21,21,0,0,1,777.38,366.36Zm-1.14-37H765.1v-2.81h11.14Zm-8.41,29.51a3.28,3.28,0,0,0,.72,2.1,5.28,5.28,0,0,0,2.05,1.47,12.29,12.29,0,0,0,3,.86,23.24,23.24,0,0,0,3.76.29,18.1,18.1,0,0,0,6.92-1.15c1.85-.76,2.77-1.94,2.77-3.52s-.91-2.76-2.75-3.52a18,18,0,0,0-6.94-1.15,23.24,23.24,0,0,0-3.76.29,12.57,12.57,0,0,0-3.06.86,5.13,5.13,0,0,0-2,1.4A3.18,3.18,0,0,0,767.83,358.91Zm27.26-19.33h-5.46v11.23h-3.44V326.67h3.44v9.87h5.46Z"/>
      <path d="M810.51,346.14a10.61,10.61,0,0,1-3.86-.7,9.61,9.61,0,0,1-3.19-2,8.94,8.94,0,0,1-2.16-3,9.74,9.74,0,0,1,0-7.64,8.61,8.61,0,0,1,2.13-3,9.66,9.66,0,0,1,3.2-2,10.71,10.71,0,0,1,3.9-.7,10.78,10.78,0,0,1,6.6,2.29,9.49,9.49,0,0,1,2.25,2.6,8.81,8.81,0,0,1,1.14,3.26h7.58v-8.64h3.43V347.2h-3.43v-8.85h-7.66a10,10,0,0,1-1.24,3.17A8.8,8.8,0,0,1,817,344a10.32,10.32,0,0,1-3,1.59A10.76,10.76,0,0,1,810.51,346.14Zm-6.57-9.47a6.32,6.32,0,0,0,.49,2.49,5.36,5.36,0,0,0,1.41,2,6,6,0,0,0,2.07,1.37,6.87,6.87,0,0,0,2.6.48,6.34,6.34,0,0,0,4.73-1.85,6.14,6.14,0,0,0,1.83-4.49,6.24,6.24,0,0,0-1.87-4.56,6.76,6.76,0,0,0-7.29-1.34,7,7,0,0,0-2.07,1.37,5.84,5.84,0,0,0-1.41,2A6.32,6.32,0,0,0,803.94,336.67Zm27.53,27.71a.76.76,0,0,1-.92.92H807.11a.76.76,0,0,1-.92-.92V349.27h3.43v4.84h18.46v-4.84h3.39Zm-21.85-1.94h18.46V357H809.62Z"/>
      <path d="M876.09,329.36v13.87a1,1,0,0,1-.2.73,1,1,0,0,1-.73.2H859.44a1,1,0,0,1-.73-.2,1,1,0,0,1-.2-.73V329.36a1.06,1.06,0,0,1,.2-.73,1,1,0,0,1,.73-.19h15.72a1,1,0,0,1,.73.19A1.06,1.06,0,0,1,876.09,329.36ZM860.36,363.1a26.36,26.36,0,0,0,4.08-.88,24.73,24.73,0,0,0,3.76-1.46,13.72,13.72,0,0,0,3-2,6.22,6.22,0,0,0,1.74-2.49H861.86v-2.69h26.38v2.69H877a7,7,0,0,0,1.81,2.38,14.05,14.05,0,0,0,2.95,2,22.52,22.52,0,0,0,3.79,1.52,27.27,27.27,0,0,0,4.27,1l-2.29,2.64a26.76,26.76,0,0,1-7.45-2.47,14,14,0,0,1-5-4,15.75,15.75,0,0,1-5,4,28.1,28.1,0,0,1-7.28,2.49Zm1.54-21.89h10.84v-9.82H861.9Zm6.43,6.52h13v2.77h-13Zm19.78-21v21.89h-3.48V326.72Z"/>
      <path d="M925.11,334.25a14.37,14.37,0,0,1,6.65,1.34q2.55,1.35,2.55,3.5a3.57,3.57,0,0,1-2,3.09,12,12,0,0,1-5.26,1.49v2.69q1.1,0,2.67-.09c1,0,2.1-.13,3.19-.22s2.14-.18,3.15-.28,1.88-.22,2.62-.33v2.46q-2.82.45-6.94.75t-8.48.31H912.64v-2.51h10.71v-2.78A12.47,12.47,0,0,1,918,342.2a3.54,3.54,0,0,1-2.07-3.06c0-1.44.85-2.61,2.56-3.53A14.2,14.2,0,0,1,925.11,334.25Zm-10.71-3.79h21.5v2.47H914.4Zm28.28,21.14a.76.76,0,0,1,.93.93v6.12a1.06,1.06,0,0,1-.2.73,1,1,0,0,1-.73.2H922.42v3.17h22.15v2.59H919.65a1,1,0,0,1-.73-.19,1.06,1.06,0,0,1-.2-.73V358a1,1,0,0,1,.2-.72,1,1,0,0,1,.73-.2h20.26v-2.86H918.72V351.6Zm-17.57-15a10,10,0,0,0-4.16.71c-1,.47-1.52,1.1-1.52,1.89s.5,1.29,1.52,1.74a12.76,12.76,0,0,0,8.28,0c1-.45,1.51-1,1.51-1.74s-.5-1.42-1.51-1.89A10,10,0,0,0,925.11,336.58Zm-5.38-10.26h10.88v2.42H919.73Zm23.83.35v9.56H949v3h-5.46v10.48h-3.39v-23Z"/>
      <path d="M958.71,327.82H984v2.86H961.27v6.79h23.16v2.9h-11.8v5.29h16.12v3H953v-3h16.07v-5.29H958.71a1.17,1.17,0,0,1-.75-.17,1.09,1.09,0,0,1-.17-.71V328.74a1,1,0,0,1,.2-.72A1,1,0,0,1,958.71,327.82Zm-1.85,31.09c0-2.17,1.21-4,3.61-5.39s5.88-2.14,10.4-2.14,8,.72,10.37,2.14,3.63,3.22,3.63,5.39-1.2,4-3.61,5.42-5.87,2.12-10.39,2.12-8-.71-10.4-2.12S956.86,361.12,956.86,358.91Zm3.83,0q0,2.38,2.78,3.63a22.1,22.1,0,0,0,14.71,0q2.87-1.25,2.86-3.63t-2.86-3.52a21.93,21.93,0,0,0-14.71,0Q960.7,356.58,960.69,358.87Z"/>
      <path d="M1013.68,355.66a.76.76,0,0,1-.93-.93V328.44h3.53v24h2.6c.67,0,1.49,0,2.44-.09s1.9-.13,2.84-.22,1.81-.19,2.6-.29a15.47,15.47,0,0,0,1.72-.29v3.13a13.41,13.41,0,0,1-1.7.29l-2.84.33c-1.11.12-2.33.21-3.63.29s-2.62.11-3.94.11Zm9.47-16.87H1031V327.33h3.35v36.52H1031V342h-7.88Zm15.9,26.91v-39h3.43v39Z"/>
      <path d="M1086.31,360.37h-35.85v-3h35.85Zm-30-31.85h25.11v3h-22.51v6.61h22.42v2.95h-22.42v6.65h22.91v3h-25.51a.76.76,0,0,1-.92-.92V329.45a1,1,0,0,1,.2-.73A1,1,0,0,1,1056.31,328.52Z"/>
      <path d="M1102.52,364.86V350.68c-.24,0-.83,0-1.79,0h-7.86v-3.08h8.24l3.12,0c1.06,0,1.9-.05,2.51-.11.88,0,1.92,0,3.11-.09s2.37-.13,3.54-.22,2.29-.14,3.35-.24,1.91-.22,2.56-.33v3c-.77.12-1.67.24-2.71.35s-2.17.22-3.37.31-2.44.17-3.7.24-2.47.11-3.61.11v14.23Zm-7.32-29a8.53,8.53,0,0,1,.66-3.33,8.1,8.1,0,0,1,1.94-2.75,9.56,9.56,0,0,1,3.11-1.89,12.42,12.42,0,0,1,8.28,0,9.51,9.51,0,0,1,3.1,1.89,8.23,8.23,0,0,1,2.65,6.08,8,8,0,0,1-.71,3.35,8.13,8.13,0,0,1-2,2.68,9,9,0,0,1-3.11,1.79,12.37,12.37,0,0,1-4.07.64,12.71,12.71,0,0,1-4.16-.64,9,9,0,0,1-3.11-1.79,7.75,7.75,0,0,1-1.94-2.68A8.45,8.45,0,0,1,1095.2,335.88Zm9.83,5.64q3.3,0,4.86-1.66a5.61,5.61,0,0,0,1.57-4,5.84,5.84,0,0,0-1.57-4.09A6.24,6.24,0,0,0,1105,330c-2.24,0-3.85.57-4.85,1.72a6,6,0,0,0-1.5,4.09,5.74,5.74,0,0,0,1.52,4C1101.22,341,1102.82,341.52,1105,341.52Zm16.07,24.18v-8h-9.25v-3h9.25V326.67h3.48v39Z"/>
      <path d="M1159.16,344.86a47.64,47.64,0,0,1-6.3.71q-3.43.18-6.87.18h-9.52v-3h11.81c2.11,0,4.06,0,5.83-.08s3.59-.21,5.44-.44c.27-1.71.48-3.37.64-5s.24-3.18.24-4.65h-23.34v-3h26a1,1,0,0,1,.72.2,1.06,1.06,0,0,1,.2.73,120.7,120.7,0,0,1-1.34,13.61q-1.08,7-2.62,13.08h8.37v3h-35.86v-3h24q.66-2.78,1.32-5.92T1159.16,344.86Z"/>
      <path d="M1195.1,366.67V325.35h3.34v41.32Z"/>
      <path d="M1234.87,361.16a.7.7,0,0,1-.22.35.94.94,0,0,1-.49.09h-2.46a.82.82,0,0,1-.42-.09.44.44,0,0,1-.2-.35l-7.89-22h3.57l6.26,18.94,5.59-18.5a.56.56,0,0,1,.2-.33.72.72,0,0,1,.42-.11h2.46a.82.82,0,0,1,.49.11.91.91,0,0,1,.22.33l5.59,18.5,6.48-18.94h3.61l-8.19,22a.57.57,0,0,1-.25.35,1,1,0,0,1-.5.09h-2.43a.8.8,0,0,1-.41-.09.44.44,0,0,1-.2-.35l-5.6-18.5Z"/>
      <path d="M1272.83,361.16a.64.64,0,0,1-.22.35.92.92,0,0,1-.48.09h-2.47a.82.82,0,0,1-.42-.09.47.47,0,0,1-.2-.35l-7.88-22h3.57l6.25,18.94,5.6-18.5a.51.51,0,0,1,.19-.33.77.77,0,0,1,.42-.11h2.47a.78.78,0,0,1,.48.11.91.91,0,0,1,.22.33l5.6,18.5,6.47-18.94H1296l-8.19,22a.6.6,0,0,1-.24.35,1.05,1.05,0,0,1-.51.09h-2.42a.82.82,0,0,1-.42-.09.47.47,0,0,1-.2-.35l-5.59-18.5Z"/>
      <path d="M1310.8,361.16a.64.64,0,0,1-.22.35.94.94,0,0,1-.49.09h-2.46a.82.82,0,0,1-.42-.09.44.44,0,0,1-.2-.35l-7.88-22h3.56l6.26,18.94,5.59-18.5a.56.56,0,0,1,.2-.33.72.72,0,0,1,.42-.11h2.46a.82.82,0,0,1,.49.11.91.91,0,0,1,.22.33l5.59,18.5,6.48-18.94H1334l-8.19,22a.57.57,0,0,1-.25.35,1,1,0,0,1-.5.09h-2.42a.82.82,0,0,1-.42-.09.44.44,0,0,1-.2-.35l-5.59-18.5Z"/>
      <path d="M1345.24,362.39h-4.54v-4.53h4.54Z"/>
      <path d="M1373.43,346.54h-3.61a5.24,5.24,0,0,0-1.63-3.94,6.11,6.11,0,0,0-4.06-1.26,4.66,4.66,0,0,0-2.53.71,6.25,6.25,0,0,0-1.91,1.89,9,9,0,0,0-1.26,2.88,14.45,14.45,0,0,0-.42,3.55,14.77,14.77,0,0,0,.42,3.61,8.42,8.42,0,0,0,1.26,2.86,5.84,5.84,0,0,0,1.91,1.92,4.73,4.73,0,0,0,2.53.68,5.23,5.23,0,0,0,5.69-5.28h3.65a8.63,8.63,0,0,1-9.12,8.15,9.57,9.57,0,0,1-4.42-1,9.16,9.16,0,0,1-3.11-2.6,11.8,11.8,0,0,1-1.83-3.81,17.07,17.07,0,0,1-.59-4.52A15.38,15.38,0,0,1,1355,346a11.09,11.09,0,0,1,1.91-3.79,9.17,9.17,0,0,1,7.62-3.66,10.11,10.11,0,0,1,3.33.55,8.57,8.57,0,0,1,2.75,1.57,8.31,8.31,0,0,1,1.92,2.53A9.09,9.09,0,0,1,1373.43,346.54Z"/>
      <path d="M1388.84,338.52a10.32,10.32,0,0,1,4.69,1,9.91,9.91,0,0,1,3.33,2.69,11.49,11.49,0,0,1,2,3.81,15.48,15.48,0,0,1,0,8.81,11.49,11.49,0,0,1-2,3.81,9.49,9.49,0,0,1-3.33,2.66,11.54,11.54,0,0,1-9.4,0,9.15,9.15,0,0,1-3.26-2.66,11.53,11.53,0,0,1-1.89-3.81,16,16,0,0,1,0-8.81,11.53,11.53,0,0,1,1.89-3.81,9.56,9.56,0,0,1,3.26-2.69A10.29,10.29,0,0,1,1388.84,338.52Zm7,11.89a12.53,12.53,0,0,0-.42-3.15,10.2,10.2,0,0,0-1.26-2.92,6.85,6.85,0,0,0-2.16-2.16,6.4,6.4,0,0,0-6.34,0,6.85,6.85,0,0,0-2.16,2.16,9.58,9.58,0,0,0-1.21,2.92,13.94,13.94,0,0,0-.37,3.15,14.34,14.34,0,0,0,.37,3.22,9.13,9.13,0,0,0,1.21,2.91,7,7,0,0,0,2.16,2.09,6.61,6.61,0,0,0,6.34,0,7,7,0,0,0,2.16-2.09,9.68,9.68,0,0,0,1.26-2.91A12.89,12.89,0,0,0,1395.85,350.41Z"/>
      <path d="M1410.42,339.23l-.08,2.86a9,9,0,0,1,3.28-2.78,9.43,9.43,0,0,1,3.9-.79,7,7,0,0,1,5.55,2.14,9,9,0,0,1,1.85,6.1V361.6h-3.4V347.68a7.81,7.81,0,0,0-1.19-4.8,4.68,4.68,0,0,0-4-1.54,5.73,5.73,0,0,0-2.22.46,5.49,5.49,0,0,0-1.92,1.39,6.63,6.63,0,0,0-1.39,2.29,9.14,9.14,0,0,0-.5,3.13v13h-3.17V339.23Z"/>
      <path d="M1437.82,339.23l-.09,2.86a9.06,9.06,0,0,1,3.28-2.78,9.43,9.43,0,0,1,3.9-.79,6.92,6.92,0,0,1,5.55,2.14,9,9,0,0,1,1.85,6.1V361.6h-3.39V347.68a7.88,7.88,0,0,0-1.19-4.8,4.68,4.68,0,0,0-4-1.54,5.74,5.74,0,0,0-2.23.46,5.37,5.37,0,0,0-1.91,1.39,6.63,6.63,0,0,0-1.39,2.29,8.89,8.89,0,0,0-.51,3.13v13h-3.17V339.23Z"/>
      <path d="M1480.81,350.37a.93.93,0,0,1-.18.66.78.78,0,0,1-.57.18h-16a13,13,0,0,0,.39,3.26,7.42,7.42,0,0,0,1.24,2.59,5.85,5.85,0,0,0,2.2,1.77,7.68,7.68,0,0,0,3.26.61,5.31,5.31,0,0,0,3.7-1.41,7.63,7.63,0,0,0,2.15-3.87h3.66a10.51,10.51,0,0,1-3.66,6.21,10.9,10.9,0,0,1-6.69,1.94,9.43,9.43,0,0,1-4.4-1,9.18,9.18,0,0,1-3.09-2.6,11.35,11.35,0,0,1-1.8-3.81,17.07,17.07,0,0,1-.58-4.52A16.09,16.09,0,0,1,1461,346a10.88,10.88,0,0,1,1.89-3.79,9.09,9.09,0,0,1,3.13-2.67,9.48,9.48,0,0,1,4.45-1,11,11,0,0,1,4.67.9,9.16,9.16,0,0,1,3.21,2.45,10.36,10.36,0,0,1,1.83,3.77A17.76,17.76,0,0,1,1480.81,350.37Zm-16.7-2h13.17a8.52,8.52,0,0,0-1.89-5.09,6,6,0,0,0-4.85-2,5.46,5.46,0,0,0-4.6,2.11A9.21,9.21,0,0,0,1464.11,348.39Z"/>
      <path d="M1506.57,346.54H1503a5.2,5.2,0,0,0-1.63-3.94,6.1,6.1,0,0,0-4-1.26,4.66,4.66,0,0,0-2.53.71,6.4,6.4,0,0,0-1.92,1.89,8.76,8.76,0,0,0-1.25,2.88,14.45,14.45,0,0,0-.42,3.55,14.77,14.77,0,0,0,.42,3.61,8.22,8.22,0,0,0,1.25,2.86,6,6,0,0,0,1.92,1.92,4.73,4.73,0,0,0,2.53.68,5.22,5.22,0,0,0,5.68-5.28h3.66a8.63,8.63,0,0,1-9.12,8.15,9.61,9.61,0,0,1-4.43-1,9.12,9.12,0,0,1-3.1-2.6,11.8,11.8,0,0,1-1.83-3.81,16.67,16.67,0,0,1-.59-4.52,15.72,15.72,0,0,1,.63-4.44,11.29,11.29,0,0,1,1.92-3.79,9.13,9.13,0,0,1,7.62-3.66,10.1,10.1,0,0,1,3.32.55,8.62,8.62,0,0,1,2.76,1.57,8.13,8.13,0,0,1,1.91,2.53A8.9,8.9,0,0,1,1506.57,346.54Z"/>
      <path d="M1519.3,332.75v6.39h5V342h-5v14.1a3.75,3.75,0,0,0,.77,2.79,2.9,2.9,0,0,0,2,.69,5.5,5.5,0,0,0,2.46-.53v2.81a9.84,9.84,0,0,1-1.47.34,10.76,10.76,0,0,1-1.43.11,9.68,9.68,0,0,1-2.25-.25,4.15,4.15,0,0,1-1.76-.86,4.33,4.33,0,0,1-1.17-1.78,8.35,8.35,0,0,1-.42-2.88V342h-4.36v-2.86H1516v-6.39Z"/>
      <path d="M1535.46,328.79v3.74h-3.74v-3.74Zm-3.56,9.95h3.39V361.6h-3.39Z"/>
      <path d="M1553.3,338.52a10.32,10.32,0,0,1,4.69,1,9.91,9.91,0,0,1,3.33,2.69,11.49,11.49,0,0,1,2,3.81,15.48,15.48,0,0,1,0,8.81,11.49,11.49,0,0,1-2,3.81,9.49,9.49,0,0,1-3.33,2.66,11.54,11.54,0,0,1-9.4,0,9.15,9.15,0,0,1-3.26-2.66,11.53,11.53,0,0,1-1.89-3.81,16,16,0,0,1,0-8.81,11.53,11.53,0,0,1,1.89-3.81,9.56,9.56,0,0,1,3.26-2.69A10.29,10.29,0,0,1,1553.3,338.52Zm7,11.89a12.53,12.53,0,0,0-.42-3.15,10.2,10.2,0,0,0-1.26-2.92,6.85,6.85,0,0,0-2.16-2.16,6.4,6.4,0,0,0-6.34,0,6.85,6.85,0,0,0-2.16,2.16,9.34,9.34,0,0,0-1.21,2.92,13.94,13.94,0,0,0-.37,3.15,14.34,14.34,0,0,0,.37,3.22,8.91,8.91,0,0,0,1.21,2.91,7,7,0,0,0,2.16,2.09,6.61,6.61,0,0,0,6.34,0,7,7,0,0,0,2.16-2.09,9.68,9.68,0,0,0,1.26-2.91A12.89,12.89,0,0,0,1560.31,350.41Z"/>
      <path d="M1574.88,339.23l-.08,2.86a9,9,0,0,1,3.28-2.78,9.42,9.42,0,0,1,3.89-.79,6.92,6.92,0,0,1,5.55,2.14,9,9,0,0,1,1.85,6.1V361.6H1586V347.68a7.81,7.81,0,0,0-1.19-4.8,4.68,4.68,0,0,0-4-1.54,5.69,5.69,0,0,0-2.22.46,5.49,5.49,0,0,0-1.92,1.39,6.63,6.63,0,0,0-1.39,2.29,8.9,8.9,0,0,0-.5,3.13v13h-3.18V339.23Z"/>
      <path d="M1595.76,339.18h3.74l7.14,18.68,7-18.68h3.65l-12.46,31.05h-3.53l3.44-8.81Z"/>
      <path d="M1631.92,338.52a10.35,10.35,0,0,1,4.69,1,9.91,9.91,0,0,1,3.33,2.69,11.49,11.49,0,0,1,2,3.81,15.48,15.48,0,0,1,0,8.81,11.49,11.49,0,0,1-2,3.81,9.49,9.49,0,0,1-3.33,2.66,11.54,11.54,0,0,1-9.4,0,9.15,9.15,0,0,1-3.26-2.66,11.74,11.74,0,0,1-1.9-3.81,16.21,16.21,0,0,1,0-8.81,11.74,11.74,0,0,1,1.9-3.81,9.56,9.56,0,0,1,3.26-2.69A10.29,10.29,0,0,1,1631.92,338.52Zm7,11.89a13,13,0,0,0-.41-3.15,10.2,10.2,0,0,0-1.26-2.92,6.85,6.85,0,0,0-2.16-2.16,6.4,6.4,0,0,0-6.34,0,6.85,6.85,0,0,0-2.16,2.16,9.34,9.34,0,0,0-1.21,2.92,13.94,13.94,0,0,0-.37,3.15,14.34,14.34,0,0,0,.37,3.22,8.91,8.91,0,0,0,1.21,2.91,7,7,0,0,0,2.16,2.09,6.61,6.61,0,0,0,6.34,0,7,7,0,0,0,2.16-2.09,9.68,9.68,0,0,0,1.26-2.91A13.35,13.35,0,0,0,1638.92,350.41Z"/>
      <path d="M1664.82,361.6l.09-2.86a9.39,9.39,0,0,1-3.33,2.77,9.15,9.15,0,0,1-3.85.8q-3.75,0-5.59-2.12c-1.24-1.41-1.85-3.45-1.85-6.12V339.23h3.39v13.91a8,8,0,0,0,1.17,4.83c.77,1,2.1,1.52,4,1.52a6,6,0,0,0,2.2-.44,5.22,5.22,0,0,0,1.94-1.37,6.82,6.82,0,0,0,1.41-2.29,8.81,8.81,0,0,0,.53-3.17v-13H1668V361.6Z"/>
      <path d="M1682.66,332.75v6.39h5V342h-5v14.1a3.75,3.75,0,0,0,.77,2.79,2.88,2.88,0,0,0,2,.69,5.77,5.77,0,0,0,1.35-.14,6,6,0,0,0,1.12-.39v2.81a9.69,9.69,0,0,1-1.48.34,10.64,10.64,0,0,1-1.43.11,9.66,9.66,0,0,1-2.24-.25,4.09,4.09,0,0,1-1.76-.86,4.33,4.33,0,0,1-1.17-1.78,8.35,8.35,0,0,1-.42-2.88V342H1675v-2.86h4.36v-6.39Z"/>
      <path d="M1698.47,328.52v13.61a8.91,8.91,0,0,1,3.33-2.77,9.53,9.53,0,0,1,3.94-.79,7.68,7.68,0,0,1,5.77,2.13,8.42,8.42,0,0,1,2.07,6.1v14.8h-3.39V347.73a6.92,6.92,0,0,0-1.41-4.8,5.4,5.4,0,0,0-4.19-1.55,5.57,5.57,0,0,0-2.22.47,6,6,0,0,0-2,1.38,6.87,6.87,0,0,0-1.41,2.3,8.65,8.65,0,0,0-.53,3.12v13h-3.17V328.52Z"/>
      <path d="M1727.58,362.39h-4.53v-4.53h4.53Z"/>
      <path d="M1747.05,338.52a10.35,10.35,0,0,1,4.69,1,9.91,9.91,0,0,1,3.33,2.69,11.49,11.49,0,0,1,2,3.81,15.48,15.48,0,0,1,0,8.81,11.49,11.49,0,0,1-2,3.81,9.49,9.49,0,0,1-3.33,2.66,11.54,11.54,0,0,1-9.4,0,9.15,9.15,0,0,1-3.26-2.66,11.74,11.74,0,0,1-1.9-3.81,16.21,16.21,0,0,1,0-8.81,11.74,11.74,0,0,1,1.9-3.81,9.56,9.56,0,0,1,3.26-2.69A10.29,10.29,0,0,1,1747.05,338.52Zm7,11.89a13,13,0,0,0-.41-3.15,10.2,10.2,0,0,0-1.26-2.92,6.85,6.85,0,0,0-2.16-2.16,6.4,6.4,0,0,0-6.34,0,6.85,6.85,0,0,0-2.16,2.16,9.34,9.34,0,0,0-1.21,2.92,13.94,13.94,0,0,0-.37,3.15,14.34,14.34,0,0,0,.37,3.22,8.91,8.91,0,0,0,1.21,2.91,7,7,0,0,0,2.16,2.09,6.61,6.61,0,0,0,6.34,0,7,7,0,0,0,2.16-2.09,9.68,9.68,0,0,0,1.26-2.91A13.35,13.35,0,0,0,1754.05,350.41Z"/>
      <path d="M1774.53,341.91a6.73,6.73,0,0,0-2.22.38,5,5,0,0,0-1.92,1.21,5.42,5.42,0,0,0-1.38,2.07,8.16,8.16,0,0,0-.51,3v13h-3.3V339.23h3.39l-.09,2.86a8,8,0,0,1,2.73-2.78,6.62,6.62,0,0,1,3.17-.79c.35,0,.72,0,1.1.05a4,4,0,0,1,1,.17v3.48l-1-.22A4.64,4.64,0,0,0,1774.53,341.91Z"/>
      <path d="M1790.26,370.23a12.63,12.63,0,0,1-6.48-1.49,6.14,6.14,0,0,1-2.9-4.89h3.78a2.93,2.93,0,0,0,.62,1.76,4.56,4.56,0,0,0,1.37,1.14,6.93,6.93,0,0,0,1.82.58,12.21,12.21,0,0,0,2,.17,6.12,6.12,0,0,0,4.64-1.67c1.08-1.12,1.61-2.83,1.61-5.15l.09-2.16a7.22,7.22,0,0,1-3.21,2.86,9.71,9.71,0,0,1-4.06.93,9.15,9.15,0,0,1-4.38-1,8.54,8.54,0,0,1-2.93-2.6,11.46,11.46,0,0,1-1.61-3.77,19.69,19.69,0,0,1-.5-4.47,18.68,18.68,0,0,1,.53-4.51,11,11,0,0,1,1.67-3.81,8.41,8.41,0,0,1,3-2.67,8.84,8.84,0,0,1,4.32-1,8.52,8.52,0,0,1,4.31,1,10.27,10.27,0,0,1,2.87,2.49l-.14-2.73h3.22v22a8.62,8.62,0,0,1-2.51,6.67C1795.68,369.46,1793.31,370.23,1790.26,370.23Zm-.18-10.74a6.29,6.29,0,0,0,3-.69,5.93,5.93,0,0,0,2.11-1.87,8.68,8.68,0,0,0,1.19-2.75,13.21,13.21,0,0,0,.4-3.33,17.19,17.19,0,0,0-.37-3.63,9.52,9.52,0,0,0-1.17-3,6.36,6.36,0,0,0-2.18-2,6.56,6.56,0,0,0-3.33-.78,4.79,4.79,0,0,0-3,.89,6,6,0,0,0-1.83,2.24,10.09,10.09,0,0,0-1,3,20.87,20.87,0,0,0-.26,3.19,16.23,16.23,0,0,0,.33,3.31,8.84,8.84,0,0,0,1.08,2.81,5.5,5.5,0,0,0,4.93,2.65Z"/>
    </g>
  </g>
</svg>
